<?xml version="1.0" encoding="UTF-8"?>
<svg width="752pt" height="752pt" version="1.1" viewBox="0 0 752 752" xmlns="http://www.w3.org/2000/svg">
 <g>
  <path d="m752 376c0 134.33-71.664 258.46-188 325.62-116.34 67.168-259.66 67.168-376 0-116.34-67.164-188-191.29-188-325.62s71.664-258.46 188-325.62c116.34-67.168 259.66-67.168 376 0 116.34 67.164 188 191.29 188 325.62" fill="#fff"/>
  <path d="m585.43 386.53c0 115.77-93.664 209.43-209.43 209.43-115.76-0.003906-209.43-94.195-209.43-209.43 0-38.414 10.523-74.719 28.414-105.77l-31.57-31.57 25.258-25.258-22.102-22.102 45.254-45.254 52.621 52.621c32.621-20 71.035-32.102 111.55-32.102 115.77 0 209.43 93.664 209.43 209.43zm-61.566-31.574c0-23.152-18.941-42.098-42.098-42.098h-215.74c-23.152 0-42.098 18.941-42.098 42.098 0 23.152 18.941 42.098 42.098 42.098h215.74c23.156 0 42.098-18.945 42.098-42.098zm-53.672-21.047c-11.051 0-20.523 8.9453-20.523 20.523 0 11.578 8.9453 20.523 20.523 20.523s20.523-8.9453 20.523-20.523c0-11.578-9.4727-20.523-20.523-20.523zm-184.17 0c-11.051 0-20.523 8.9453-20.523 20.523 0 11.578 8.9453 20.523 20.523 20.523s20.523-8.9453 20.523-20.523c0-11.578-9.4727-20.523-20.523-20.523z" fill="#fab55c"/>
 </g>
</svg>
